<?xml version="1.0" encoding="utf-8"?>
<!-- Generator: Adobe Illustrator 26.0.3, SVG Export Plug-In . SVG Version: 6.00 Build 0)  -->
<svg version="1.1" id="Layer_1" xmlns="http://www.w3.org/2000/svg" xmlns:xlink="http://www.w3.org/1999/xlink" x="0px" y="0px" viewBox="234.64 488.08 610.72 104.84" style="enable-background:new 0 0 1080 1080;" xml:space="preserve">
<style type="text/css">
	.st0{fill:#00605C;}
	.st1{fill:#E94F35;}
	.st2{fill:#808080;}
	.st3{clip-path:url(#SVGID_00000045596445119458664350000006102002587428016036_);fill:#1D1D1B;}
</style>
<rect x="595.36" y="517.92" class="st0" width="75" height="75"></rect>
<rect x="682.86" y="517.92" class="st1" width="75" height="75"></rect>
<rect x="770.36" y="517.92" class="st2" width="75" height="75"></rect>
<g>
	<defs>
		<rect id="SVGID_1_" x="234.64" y="488.08" width="610.71" height="104.83"></rect>
	</defs>
	<clipPath id="SVGID_00000010284450567288910080000005314796427075996800_">
		<use xlink:href="#SVGID_1_" style="overflow:visible;"></use>
	</clipPath>
	<path style="clip-path:url(#SVGID_00000010284450567288910080000005314796427075996800_);fill:#1D1D1B;" d="M545.56,591.39h27.63
		c-1.92-6.57-2.68-13.14-2.68-19.33v-82.82c-8.8,1.15-17.04,1.72-25.9,2.17c3,6.25,3.76,12.95,3.76,19.78v60.87
		C548.37,578.24,547.48,584.81,545.56,591.39 M510.54,499.63c0,7.47,4.59,11.74,13.02,11.74c8.3,0,12.7-4.27,12.7-11.74
		c0-7.21-4.4-11.55-12.7-11.55C515.13,488.08,510.54,492.42,510.54,499.63 M510.28,591.32h27.63c-1.85-6.57-2.68-13.14-2.68-19.33
		v-56.72c-7.79,1.4-17.04,2.42-25.9,2.81c3,8.8,3.76,17.93,3.76,28.78v25.14C513.09,578.18,512.2,584.75,510.28,591.32
		 M461.28,570.71c0-7.08,4.66-11.42,16.78-12.51v17.1c0,0.83,0,1.66,0.06,2.42c-2.49,1.28-5.49,2.04-8.17,2.04
		C464.09,579.77,461.28,576.14,461.28,570.71 M480.1,592.92c7.15-1.34,15.44-2.3,23.67-2.87c-3.06-8.93-3.76-17.23-3.76-25.08
		v-26.29c0-16.14-8.17-23.42-27.44-23.42c-10.27,0-21.25,2.17-30.95,7.59l6.89,17.42c6.64-7.72,13.21-11.74,20.55-11.74
		c6.06,0,9,3,9,10.08v8.42c-28.58,2.74-38.09,12.76-38.09,26.67c0,10.97,5.87,19.2,19.01,19.2c9.19,0,16.33-4.02,19.33-11.8
		C478.64,585.26,479.34,589.28,480.1,592.92 M410.68,592.92c9.76,0,17.74-2.55,24.44-7.46l-2.81-13.02
		c-4.59,3.76-10.97,5.68-16.72,5.68c-12.51,0-19.01-11.68-19.01-27.5c0-15.44,5.3-21.57,15.63-21.57c7.79,0,13.53,4.08,18.76,10.4
		l3.51-20.54c-5.55-2.49-12.51-3.64-21.18-3.64c-24.05,0-38.54,12.7-38.54,38.6C374.76,577.03,386.76,592.92,410.68,592.92
		 M320.65,554.06c0-22.71,4.91-27.69,11.68-27.69c6.83,0,11.68,4.98,11.68,27.69c0,22.71-4.85,27.76-11.68,27.76
		C325.57,581.81,320.65,576.77,320.65,554.06 M332.33,592.92c20.35,0,35.22-13.02,35.22-38.86c0-25.78-14.87-38.79-35.22-38.79
		s-35.22,13.02-35.22,38.79C297.11,579.9,311.98,592.92,332.33,592.92 M234.64,591.32h29.54c-2.04-8.49-3.06-17.1-3.06-25.33v-15.57
		c9.76,0.13,18.25,0.45,26.8,1.08c1.08-6.19,1.59-12.76,1.34-17.8c-9,1.47-17.93,2.36-28.14,2.74v-27.37
		c11.29,0.45,22.97,1.6,34.65,3.96l-2.17-17.99h-58.96c2.04,8.55,3.06,17.16,3.06,25.33v45.62
		C237.71,574.22,236.62,582.84,234.64,591.32"></path>
</g>
</svg>
